<svg width="20" height="20" viewBox="0 0 20 20" fill="none" xmlns="http://www.w3.org/2000/svg">
<path d="M11.6654 16.6667C11.6654 17.5871 10.9192 18.3333 9.9987 18.3333C9.07822 18.3333 8.33203 17.5871 8.33203 16.6667C8.33203 15.7462 9.07822 15 9.9987 15C10.9192 15 11.6654 15.7462 11.6654 16.6667Z" stroke="#050506" stroke-width="1.5" stroke-linecap="round" stroke-linejoin="round"/>
<path d="M5.0013 16.6667C5.0013 17.5871 4.25511 18.3333 3.33464 18.3333C2.41416 18.3333 1.66797 17.5871 1.66797 16.6667C1.66797 15.7462 2.41416 15 3.33464 15C4.25511 15 5.0013 15.7462 5.0013 16.6667Z" stroke="#050506" stroke-width="1.5" stroke-linecap="round" stroke-linejoin="round"/>
<path d="M18.3333 16.6667C18.3333 17.5871 17.5871 18.3333 16.6667 18.3333C15.7462 18.3333 15 17.5871 15 16.6667C15 15.7462 15.7462 15 16.6667 15C17.5871 15 18.3333 15.7462 18.3333 16.6667Z" stroke="#050506" stroke-width="1.5" stroke-linecap="round" stroke-linejoin="round"/>
<path d="M11.6654 3.33464C11.6654 4.25511 10.9192 5.0013 9.9987 5.0013C9.07822 5.0013 8.33203 4.25511 8.33203 3.33464C8.33203 2.41416 9.07822 1.66797 9.9987 1.66797C10.9192 1.66797 11.6654 2.41416 11.6654 3.33464Z" stroke="#050506" stroke-width="1.5" stroke-linecap="round" stroke-linejoin="round"/>
<path d="M10 5V15" stroke="#050506" stroke-width="1.5" stroke-linecap="round" stroke-linejoin="round"/>
<path d="M3.33203 15.0013L3.33203 11.668C3.33203 10.0013 4.16536 9.16797 5.83203 9.16797H14.1654C15.832 9.16797 16.6654 10.0013 16.6654 11.668V15.0013" stroke="#050506" stroke-width="1.5" stroke-linecap="round" stroke-linejoin="round"/>
</svg>
