<svg width="20" height="20" viewBox="0 0 20 20" fill="none" xmlns="http://www.w3.org/2000/svg">
<path d="M6.25 15C6.58152 15 6.89946 15.1317 7.13388 15.3661C7.3683 15.6005 7.5 15.9185 7.5 16.25C7.5 16.5815 7.3683 16.8995 7.13388 17.1339C6.89946 17.3683 6.58152 17.5 6.25 17.5C5.91848 17.5 5.60054 17.3683 5.36612 17.1339C5.1317 16.8995 5 16.5815 5 16.25C5 15.9185 5.1317 15.6005 5.36612 15.3661C5.60054 15.1317 5.91848 15 6.25 15ZM13.75 15C14.0815 15 14.3995 15.1317 14.6339 15.3661C14.8683 15.6005 15 15.9185 15 16.25C15 16.5815 14.8683 16.8995 14.6339 17.1339C14.3995 17.3683 14.0815 17.5 13.75 17.5C13.4185 17.5 13.1005 17.3683 12.8661 17.1339C12.6317 16.8995 12.5 16.5815 12.5 16.25C12.5 15.9185 12.6317 15.6005 12.8661 15.3661C13.1005 15.1317 13.4185 15 13.75 15Z" stroke="#050506" stroke-width="1.5"/>
<path d="M9.16797 7.5H6.66797M1.66797 2.5L1.8888 2.57333C2.9888 2.94 3.5388 3.12333 3.85297 3.56C4.16714 3.99667 4.16797 4.57667 4.16797 5.73583V7.91667C4.16797 10.2733 4.16797 11.4525 4.90047 12.1842C5.63213 12.9167 6.8113 12.9167 9.16797 12.9167H10.8346M15.8346 12.9167H14.168" stroke="#050506" stroke-width="1.5" stroke-linecap="round"/>
<path d="M4.16797 5H6.66797M4.58464 10.8333H13.353C14.153 10.8333 14.5521 10.8333 14.8655 10.6267C15.1788 10.42 15.3355 10.0533 15.6505 9.31833L16.008 8.485C16.683 6.91 17.0196 6.12417 16.6496 5.56167C16.2788 5 15.4221 5 13.7096 5H10.0013" stroke="#050506" stroke-width="1.5" stroke-linecap="round"/>
</svg>
