<svg width="20" height="20" viewBox="0 0 20 20" fill="none" xmlns="http://www.w3.org/2000/svg">
<path d="M3.32603 12.2167L2.05937 10.95C1.54271 10.4334 1.54271 9.58335 2.05937 9.06668L3.32603 7.8C3.5427 7.58333 3.7177 7.15833 3.7177 6.85833V5.06664C3.7177 4.3333 4.31771 3.73333 5.05104 3.73333H6.8427C7.1427 3.73333 7.5677 3.55835 7.78437 3.34168L9.05103 2.075C9.5677 1.55833 10.4177 1.55833 10.9344 2.075L12.2011 3.34168C12.4177 3.55835 12.8427 3.73333 13.1427 3.73333H14.9344C15.6677 3.73333 16.2677 4.3333 16.2677 5.06664V6.85833C16.2677 7.15833 16.4427 7.58333 16.6594 7.8L17.926 9.06668C18.4427 9.58335 18.4427 10.4334 17.926 10.95L16.6594 12.2167C16.4427 12.4334 16.2677 12.8584 16.2677 13.1584V14.95C16.2677 15.6833 15.6677 16.2834 14.9344 16.2834H13.1427C12.8427 16.2834 12.4177 16.4583 12.2011 16.675L10.9344 17.9417C10.4177 18.4584 9.5677 18.4584 9.05103 17.9417L7.78437 16.675C7.5677 16.4583 7.1427 16.2834 6.8427 16.2834H5.05104C4.31771 16.2834 3.7177 15.6833 3.7177 14.95V13.1584C3.7177 12.85 3.5427 12.425 3.32603 12.2167Z" stroke="#050506" stroke-width="1.5" stroke-linecap="round" stroke-linejoin="round"/>
<path d="M7.5 12.5L12.5 7.5" stroke="#050506" stroke-width="1.5" stroke-linecap="round" stroke-linejoin="round"/>
<path d="M12.0801 12.0846H12.0875" stroke="#050506" stroke-width="2" stroke-linecap="round" stroke-linejoin="round"/>
<path d="M7.91209 7.91667H7.91957" stroke="#050506" stroke-width="2" stroke-linecap="round" stroke-linejoin="round"/>
</svg>
