<svg width="20" height="20" viewBox="0 0 20 20" fill="none" xmlns="http://www.w3.org/2000/svg">
<mask id="path-1-inside-1_3377_19241" fill="white">
<path d="M16.2513 7.41618H15.418V2.08333H13.7513V4.91618H12.918V1.66667C12.9179 1.61194 12.9287 1.55774 12.9496 1.50718C12.9705 1.45661 13.0012 1.41067 13.0399 1.37197C13.0786 1.33327 13.1246 1.30258 13.1751 1.28165C13.2257 1.26072 13.2799 1.24997 13.3346 1.25H15.8346C15.8894 1.24997 15.9436 1.26072 15.9941 1.28165C16.0447 1.30258 16.0906 1.33327 16.1293 1.37197C16.168 1.41067 16.1987 1.45661 16.2197 1.50718C16.2406 1.55774 16.2513 1.61194 16.2513 1.66667V7.41618Z"/>
</mask>
<path d="M16.2513 7.41618V8.91618C17.0797 8.91618 17.7513 8.2446 17.7513 7.41618H16.2513ZM15.418 7.41618H13.918C13.918 8.2446 14.5895 8.91618 15.418 8.91618V7.41618ZM15.418 2.08333H16.918C16.918 1.25491 16.2464 0.583334 15.418 0.583334V2.08333ZM13.7513 2.08333V0.583334C12.9229 0.583334 12.2513 1.25491 12.2513 2.08333H13.7513ZM13.7513 4.91618V6.41618C14.5797 6.41618 15.2513 5.7446 15.2513 4.91618H13.7513ZM12.918 4.91618H11.418C11.418 5.7446 12.0895 6.41618 12.918 6.41618V4.91618ZM12.918 1.66667H14.418L14.418 1.6658L12.918 1.66667ZM13.3346 1.25L13.3338 2.75H13.3346V1.25ZM15.8346 1.25L15.8346 2.75L15.8355 2.75L15.8346 1.25ZM16.2513 1.66667L14.7513 1.6658V1.66667H16.2513ZM16.2513 7.41618V5.91618H15.418V7.41618V8.91618H16.2513V7.41618ZM15.418 7.41618H16.918V2.08333H15.418H13.918V7.41618H15.418ZM15.418 2.08333V0.583334H13.7513V2.08333V3.58333H15.418V2.08333ZM13.7513 2.08333H12.2513V4.91618H13.7513H15.2513V2.08333H13.7513ZM13.7513 4.91618V3.41618H12.918V4.91618V6.41618H13.7513V4.91618ZM12.918 4.91618H14.418V1.66667H12.918H11.418V4.91618H12.918ZM12.918 1.66667L14.418 1.6658C14.4181 1.8082 14.3901 1.94923 14.3356 2.0808L12.9496 1.50718L11.5636 0.933555C11.4673 1.16626 11.4178 1.41568 11.418 1.66754L12.918 1.66667ZM12.9496 1.50718L14.3356 2.0808C14.2812 2.21237 14.2013 2.33193 14.1006 2.43263L13.0399 1.37197L11.9793 0.311308C11.8012 0.489402 11.6599 0.700849 11.5636 0.933555L12.9496 1.50718ZM13.0399 1.37197L14.1006 2.43263C13.9999 2.53332 13.8803 2.61318 13.7488 2.66764L13.1751 1.28165L12.6015 -0.104334C12.3688 -0.00801969 12.1574 0.13322 11.9793 0.311308L13.0399 1.37197ZM13.1751 1.28165L13.7488 2.66764C13.6172 2.7221 13.4762 2.75008 13.3338 2.75L13.3346 1.25L13.3355 -0.25C13.0837 -0.250146 12.8342 -0.200648 12.6015 -0.104334L13.1751 1.28165ZM13.3346 1.25V2.75H15.8346V1.25V-0.25H13.3346V1.25ZM15.8346 1.25L15.8355 2.75C15.6931 2.75008 15.5521 2.7221 15.4205 2.66764L15.9941 1.28165L16.5677 -0.104334C16.335 -0.200648 16.0856 -0.250146 15.8338 -0.25L15.8346 1.25ZM15.9941 1.28165L15.4205 2.66764C15.2889 2.61318 15.1694 2.53332 15.0687 2.43263L16.1293 1.37197L17.19 0.311308C17.0119 0.133226 16.8005 -0.00801659 16.5677 -0.104334L15.9941 1.28165ZM16.1293 1.37197L15.0687 2.43263C14.968 2.33194 14.8881 2.21238 14.8337 2.0808L16.2197 1.50718L17.6056 0.933555C17.5093 0.700838 17.3681 0.489393 17.19 0.311308L16.1293 1.37197ZM16.2197 1.50718L14.8337 2.0808C14.7792 1.94923 14.7512 1.8082 14.7513 1.6658L16.2513 1.66667L17.7513 1.66754C17.7514 1.41568 17.7019 1.16626 17.6056 0.933555L16.2197 1.50718ZM16.2513 1.66667H14.7513V7.41618H16.2513H17.7513V1.66667H16.2513Z" fill="#050506" mask="url(#path-1-inside-1_3377_19241)"/>
<path d="M17.4043 10.5605L17.3799 10.585L17.3662 10.5977L17.4043 10.5605Z" stroke="#050506" stroke-width="1.5" stroke-linejoin="round"/>
<mask id="path-4-inside-2_3377_19241" fill="white">
<path d="M15.8328 18.8742H11.6661C11.6116 18.8743 11.5577 18.8636 11.5074 18.8427C11.4571 18.8218 11.4114 18.7911 11.3731 18.7524C11.3347 18.7138 11.3044 18.6678 11.284 18.6174C11.2635 18.5669 11.2533 18.5128 11.2539 18.4584L11.2917 14.2453H8.72746L8.74496 18.4608C8.74515 18.515 8.73463 18.5688 8.714 18.6189C8.69337 18.6691 8.66303 18.7147 8.62473 18.7531C8.58643 18.7915 8.54093 18.822 8.49082 18.8428C8.44072 18.8635 8.387 18.8742 8.33276 18.8742H4.1661C4.11199 18.8742 4.0584 18.8636 4.0084 18.8429C3.95839 18.8223 3.91295 18.792 3.87467 18.7537C3.83639 18.7155 3.80602 18.6701 3.7853 18.6201C3.76458 18.5701 3.75391 18.5165 3.75391 18.4624V9.61394H4.57829V18.0506H7.91895L7.90145 13.8351C7.90125 13.7809 7.91177 13.7271 7.9324 13.677C7.95303 13.6268 7.98336 13.5812 8.02166 13.5428C8.05996 13.5044 8.10547 13.4739 8.15557 13.4531C8.20568 13.4323 8.2594 13.4217 8.31364 13.4217H11.7076C11.7621 13.4216 11.816 13.4323 11.8663 13.4532C11.9166 13.4741 11.9623 13.5047 12.0006 13.5434C12.039 13.5821 12.0693 13.628 12.0897 13.6785C12.1102 13.729 12.1204 13.7831 12.1198 13.8375L12.0819 18.0506H15.4206V9.46094H16.2449V18.4624C16.2449 18.5165 16.2343 18.5701 16.2135 18.6201C16.1928 18.6701 16.1625 18.7155 16.1242 18.7537C16.0859 18.7919 16.0405 18.8223 15.9905 18.8429C15.9405 18.8636 15.8869 18.8742 15.8328 18.8742Z"/>
</mask>
<path d="M11.6661 18.8742V17.3742L11.6626 17.3742L11.6661 18.8742ZM11.2539 18.4584L12.7538 18.475L12.7538 18.4718L11.2539 18.4584ZM11.2917 14.2453L12.7917 14.2588C12.7953 13.8586 12.6388 13.4736 12.3572 13.1894C12.0755 12.9052 11.6919 12.7453 11.2917 12.7453V14.2453ZM8.72746 14.2453V12.7453C8.32855 12.7453 7.94608 12.9042 7.6646 13.1868C7.38311 13.4695 7.22581 13.8526 7.22747 14.2515L8.72746 14.2453ZM8.74496 18.4608L10.2449 18.4554L10.2449 18.4546L8.74496 18.4608ZM8.33276 18.8742L8.33377 17.3742H8.33276V18.8742ZM4.1661 18.8742V17.3742L4.16476 17.3742L4.1661 18.8742ZM3.75391 18.4624H2.25391V18.4626L3.75391 18.4624ZM3.75391 9.61394V8.11394C2.92548 8.11394 2.25391 8.78551 2.25391 9.61394H3.75391ZM4.57829 9.61394H6.07829C6.07829 8.78551 5.40672 8.11394 4.57829 8.11394V9.61394ZM4.57829 18.0506H3.07829C3.07829 18.879 3.74986 19.5506 4.57829 19.5506V18.0506ZM7.91895 18.0506V19.5506C8.31785 19.5506 8.70032 19.3917 8.98181 19.1091C9.26329 18.8264 9.42059 18.4433 9.41893 18.0444L7.91895 18.0506ZM7.90145 13.8351L6.40146 13.8406L6.40146 13.8413L7.90145 13.8351ZM8.15557 13.4531L7.58099 12.0675L8.15557 13.4531ZM8.31364 13.4217L8.31263 14.9217H8.31364V13.4217ZM11.7076 13.4217V14.9217L11.7111 14.9217L11.7076 13.4217ZM12.1198 13.8375L10.6199 13.8208L10.6198 13.8241L12.1198 13.8375ZM12.0819 18.0506L10.582 18.0371C10.5784 18.4373 10.7348 18.8223 11.0165 19.1065C11.2982 19.3907 11.6818 19.5506 12.0819 19.5506V18.0506ZM15.4206 18.0506V19.5506C16.249 19.5506 16.9206 18.879 16.9206 18.0506H15.4206ZM15.4206 9.46094V7.96094C14.5921 7.96094 13.9206 8.63251 13.9206 9.46094H15.4206ZM16.2449 9.46094H17.7449C17.7449 8.63251 17.0734 7.96094 16.2449 7.96094V9.46094ZM16.2449 18.4624L17.7449 18.4626V18.4624H16.2449ZM15.8328 18.8742V17.3742H11.6661V18.8742V20.3742H15.8328V18.8742ZM11.6661 18.8742L11.6626 17.3742C11.8068 17.3739 11.9497 17.4022 12.0828 17.4575L11.5074 18.8427L10.9319 20.2279C11.1657 20.3251 11.4164 20.3748 11.6696 20.3742L11.6661 18.8742ZM11.5074 18.8427L12.0828 17.4575C12.216 17.5128 12.3369 17.594 12.4384 17.6965L11.3731 18.7524L10.3077 19.8084C10.486 19.9882 10.6981 20.1308 10.9319 20.2279L11.5074 18.8427ZM11.3731 18.7524L12.4384 17.6965C12.5399 17.7989 12.6201 17.9205 12.6742 18.0541L11.284 18.6174L9.89375 19.1806C9.9888 19.4152 10.1295 19.6286 10.3077 19.8084L11.3731 18.7524ZM11.284 18.6174L12.6742 18.0541C12.7284 18.1877 12.7554 18.3308 12.7538 18.475L11.2539 18.4584L9.754 18.4417C9.75119 18.6948 9.79869 18.946 9.89375 19.1806L11.284 18.6174ZM11.2539 18.4584L12.7538 18.4718L12.7917 14.2588L11.2917 14.2453L9.79181 14.2318L9.75396 18.4449L11.2539 18.4584ZM11.2917 14.2453V12.7453H8.72746V14.2453V15.7453H11.2917V14.2453ZM8.72746 14.2453L7.22747 14.2515L7.24497 18.467L8.74496 18.4608L10.2449 18.4546L10.2274 14.2391L8.72746 14.2453ZM8.74496 18.4608L7.24496 18.4662C7.24445 18.3229 7.27224 18.1809 7.32674 18.0484L8.714 18.6189L10.1013 19.1895C10.197 18.9566 10.2458 18.7072 10.2449 18.4554L8.74496 18.4608ZM8.714 18.6189L7.32674 18.0484C7.38124 17.9159 7.46137 17.7955 7.56253 17.694L8.62473 18.7531L9.68693 19.8122C9.86469 19.634 10.0055 19.4223 10.1013 19.1895L8.714 18.6189ZM8.62473 18.7531L7.56253 17.694C7.66369 17.5925 7.7839 17.5121 7.91626 17.4572L8.49082 18.8428L9.06539 20.2284C9.29795 20.1319 9.50918 19.9905 9.68693 19.8122L8.62473 18.7531ZM8.49082 18.8428L7.91626 17.4572C8.0486 17.4023 8.19049 17.3741 8.33377 17.3742L8.33276 18.8742L8.33175 20.3742C8.58352 20.3744 8.83284 20.3248 9.06539 20.2284L8.49082 18.8428ZM8.33276 18.8742V17.3742H4.1661V18.8742V20.3742H8.33276V18.8742ZM4.1661 18.8742L4.16476 17.3742C4.30774 17.3741 4.44934 17.4021 4.58146 17.4567L4.0084 18.8429L3.43533 20.2292C3.66747 20.3251 3.91624 20.3744 4.16743 20.3742L4.1661 18.8742ZM4.0084 18.8429L4.58146 17.4567C4.71361 17.5114 4.83367 17.5915 4.93481 17.6925L3.87467 18.7537L2.81454 19.8149C2.99223 19.9924 3.20318 20.1332 3.43533 20.2292L4.0084 18.8429ZM3.87467 18.7537L4.93481 17.6925C5.03595 17.7936 5.11619 17.9136 5.17095 18.0456L3.7853 18.6201L2.39965 19.1945C2.49585 19.4266 2.63684 19.6374 2.81454 19.8149L3.87467 18.7537ZM3.7853 18.6201L5.17095 18.0456C5.2257 18.1777 5.25389 18.3193 5.25391 18.4623L3.75391 18.4624L2.25391 18.4626C2.25393 18.7137 2.30346 18.9625 2.39965 19.1945L3.7853 18.6201ZM3.75391 18.4624H5.25391V9.61394H3.75391H2.25391V18.4624H3.75391ZM3.75391 9.61394V11.1139H4.57829V9.61394V8.11394H3.75391V9.61394ZM4.57829 9.61394H3.07829V18.0506H4.57829H6.07829V9.61394H4.57829ZM4.57829 18.0506V19.5506H7.91895V18.0506V16.5506H4.57829V18.0506ZM7.91895 18.0506L9.41893 18.0444L9.40143 13.8289L7.90145 13.8351L6.40146 13.8413L6.41896 18.0568L7.91895 18.0506ZM7.90145 13.8351L9.40144 13.8297C9.40196 13.9729 9.37418 14.1149 9.31968 14.2474L7.9324 13.677L6.54511 13.1065C6.44936 13.3393 6.40054 13.5888 6.40146 13.8406L7.90145 13.8351ZM7.9324 13.677L9.31968 14.2474C9.26519 14.3799 9.18506 14.5004 9.08389 14.6019L8.02166 13.5428L6.95943 12.4837C6.78166 12.662 6.64086 12.8736 6.54511 13.1065L7.9324 13.677ZM8.02166 13.5428L9.08389 14.6019C8.98271 14.7033 8.86249 14.7838 8.73016 14.8387L8.15557 13.4531L7.58099 12.0675C7.34844 12.164 7.13721 12.3054 6.95943 12.4837L8.02166 13.5428ZM8.15557 13.4531L8.73016 14.8387C8.59783 14.8936 8.45594 14.9218 8.31263 14.9217L8.31364 13.4217L8.31465 11.9217C8.06285 11.9215 7.81353 11.9711 7.58099 12.0675L8.15557 13.4531ZM8.31364 13.4217V14.9217H11.7076V13.4217V11.9217H8.31364V13.4217ZM11.7076 13.4217L11.7111 14.9217C11.5669 14.922 11.424 14.8937 11.2909 14.8384L11.8663 13.4532L12.4418 12.0679C12.208 11.9708 11.9573 11.9211 11.7041 11.9217L11.7076 13.4217ZM11.8663 13.4532L11.2909 14.8384C11.1577 14.7831 11.0368 14.7018 10.9353 14.5994L12.0006 13.5434L13.0659 12.4874C12.8877 12.3077 12.6756 12.1651 12.4418 12.0679L11.8663 13.4532ZM12.0006 13.5434L10.9353 14.5994C10.8338 14.497 10.7536 14.3754 10.6995 14.2418L12.0897 13.6785L13.48 13.1153C13.3849 12.8807 13.2442 12.6672 13.0659 12.4874L12.0006 13.5434ZM12.0897 13.6785L10.6995 14.2418C10.6453 14.1081 10.6183 13.965 10.6199 13.8208L12.1198 13.8375L13.6197 13.8542C13.6225 13.6011 13.575 13.3499 13.48 13.1153L12.0897 13.6785ZM12.1198 13.8375L10.6198 13.8241L10.582 18.0371L12.0819 18.0506L13.5819 18.0641L13.6197 13.851L12.1198 13.8375ZM12.0819 18.0506V19.5506H15.4206V18.0506V16.5506H12.0819V18.0506ZM15.4206 18.0506H16.9206V9.46094H15.4206H13.9206V18.0506H15.4206ZM15.4206 9.46094V10.9609H16.2449V9.46094V7.96094H15.4206V9.46094ZM16.2449 9.46094H14.7449V18.4624H16.2449H17.7449V9.46094H16.2449ZM16.2449 18.4624L14.7449 18.4623C14.745 18.3193 14.7731 18.1777 14.8279 18.0456L16.2135 18.6201L17.5992 19.1945C17.6954 18.9625 17.7449 18.7137 17.7449 18.4626L16.2449 18.4624ZM16.2135 18.6201L14.8279 18.0456C14.8826 17.9136 14.9629 17.7936 15.064 17.6925L16.1242 18.7537L17.1843 19.8149C17.362 19.6373 17.503 19.4265 17.5992 19.1945L16.2135 18.6201ZM16.1242 18.7537L15.064 17.6925C15.1652 17.5915 15.2852 17.5114 15.4174 17.4567L15.9905 18.8429L16.5636 20.2291C16.7957 20.1332 17.0066 19.9924 17.1843 19.8149L16.1242 18.7537ZM15.9905 18.8429L15.4174 17.4567C15.5495 17.4021 15.6911 17.3741 15.834 17.3742L15.8328 18.8742L15.8315 20.3742C16.0827 20.3744 16.3314 20.3251 16.5636 20.2291L15.9905 18.8429Z" fill="#050506" mask="url(#path-4-inside-2_3377_19241)"/>
</svg>
