<svg width="20" height="20" viewBox="0 0 20 20" fill="none" xmlns="http://www.w3.org/2000/svg">
<path d="M10 12.5C11.3807 12.5 12.5 11.3807 12.5 10C12.5 8.61929 11.3807 7.5 10 7.5C8.61929 7.5 7.5 8.61929 7.5 10C7.5 11.3807 8.61929 12.5 10 12.5Z" stroke="#050506" stroke-width="1.5" stroke-miterlimit="10" stroke-linecap="round" stroke-linejoin="round"/>
<path d="M1.66797 10.7319V9.26523C1.66797 8.39856 2.3763 7.6819 3.2513 7.6819C4.75964 7.6819 5.3763 6.61523 4.61797 5.3069C4.18464 4.5569 4.44297 3.5819 5.2013 3.14856L6.64297 2.32356C7.3013 1.9319 8.1513 2.16523 8.54297 2.82356L8.63463 2.9819C9.38463 4.29023 10.618 4.29023 11.3763 2.9819L11.468 2.82356C11.8596 2.16523 12.7096 1.9319 13.368 2.32356L14.8096 3.14856C15.568 3.5819 15.8263 4.5569 15.393 5.3069C14.6346 6.61523 15.2513 7.6819 16.7596 7.6819C17.6263 7.6819 18.343 8.39023 18.343 9.26523V10.7319C18.343 11.5986 17.6346 12.3152 16.7596 12.3152C15.2513 12.3152 14.6346 13.3819 15.393 14.6902C15.8263 15.4486 15.568 16.4152 14.8096 16.8486L13.368 17.6736C12.7096 18.0652 11.8596 17.8319 11.468 17.1736L11.3763 17.0152C10.6263 15.7069 9.39297 15.7069 8.63463 17.0152L8.54297 17.1736C8.1513 17.8319 7.3013 18.0652 6.64297 17.6736L5.2013 16.8486C4.44297 16.4152 4.18464 15.4402 4.61797 14.6902C5.3763 13.3819 4.75964 12.3152 3.2513 12.3152C2.3763 12.3152 1.66797 11.5986 1.66797 10.7319Z" stroke="#050506" stroke-width="1.5" stroke-miterlimit="10" stroke-linecap="round" stroke-linejoin="round"/>
</svg>
