<svg width="20" height="20" viewBox="0 0 20 20" fill="none" xmlns="http://www.w3.org/2000/svg">
<path d="M8.01562 13.332L9.26562 14.582L11.974 12.082" stroke="#4D4F52" stroke-width="1.5" stroke-linecap="round" stroke-linejoin="round"/>
<path d="M7.34089 1.66797L4.32422 4.69297" stroke="#4D4F52" stroke-width="1.5" stroke-miterlimit="10" stroke-linecap="round" stroke-linejoin="round"/>
<path d="M12.6602 1.66797L15.6768 4.69297" stroke="#4D4F52" stroke-width="1.5" stroke-miterlimit="10" stroke-linecap="round" stroke-linejoin="round"/>
<path d="M1.66797 6.54167C1.66797 5 2.49297 4.875 3.51797 4.875H16.4846C17.5096 4.875 18.3346 5 18.3346 6.54167C18.3346 8.33333 17.5096 8.20833 16.4846 8.20833H3.51797C2.49297 8.20833 1.66797 8.33333 1.66797 6.54167Z" stroke="#4D4F52" stroke-width="1.5"/>
<path d="M2.91797 8.33203L4.09297 15.532C4.35964 17.1487 5.0013 18.332 7.38464 18.332H12.4096C15.0013 18.332 15.3846 17.1987 15.6846 15.632L17.0846 8.33203" stroke="#4D4F52" stroke-width="1.5" stroke-linecap="round"/>
</svg>
