<svg width="14" height="13" viewBox="0 0 14 13" fill="none" xmlns="http://www.w3.org/2000/svg">
<path d="M5.83385 0.68816C6.13454 -0.230338 7.43389 -0.230341 7.73459 0.688157L8.65454 3.49824C8.78907 3.90919 9.1725 4.18711 9.60491 4.18711H12.5658C13.5364 4.18711 13.9379 5.43057 13.1507 5.99823L10.7683 7.7162C10.4151 7.97084 10.2673 8.42469 10.4028 8.83844L11.3159 11.6275C11.617 12.5475 10.5658 13.3159 9.78059 12.7497L7.36911 11.0108C7.01985 10.759 6.54859 10.759 6.19933 11.0108L3.78785 12.7497C3.00266 13.3159 1.95141 12.5475 2.25259 11.6275L3.16566 8.83844C3.30111 8.42468 3.1533 7.97084 2.80018 7.7162L0.417725 5.99823C-0.369497 5.43057 0.0320673 4.18711 1.00261 4.18711H3.96353C4.39594 4.18711 4.77937 3.90919 4.9139 3.49824L5.83385 0.68816Z" fill="#050506"/>
</svg>
