<svg width="20" height="20" viewBox="0 0 20 20" fill="none" xmlns="http://www.w3.org/2000/svg">
<path d="M19.1667 15.0013C19.1667 15.6263 18.9917 16.218 18.6833 16.718C18.5083 17.018 18.2833 17.2846 18.025 17.5013C17.4417 18.0263 16.675 18.3346 15.8333 18.3346C14.8167 18.3346 13.9083 17.8763 13.3083 17.1597C13.2917 17.1347 13.2667 17.118 13.25 17.093C13.15 16.9763 13.0583 16.8513 12.9833 16.718C12.675 16.218 12.5 15.6263 12.5 15.0013C12.5 13.9513 12.9833 13.0096 13.75 12.4013C14.325 11.943 15.05 11.668 15.8333 11.668C16.6667 11.668 17.4167 11.9679 18 12.4763C18.1 12.5513 18.1917 12.643 18.275 12.7347C18.825 13.3347 19.1667 14.1263 19.1667 15.0013Z" stroke="#4D4F52" stroke-width="1.5" stroke-miterlimit="10" stroke-linecap="round" stroke-linejoin="round"/>
<path d="M17.0732 14.9805H14.5898" stroke="#4D4F52" stroke-width="1.5" stroke-miterlimit="10" stroke-linecap="round" stroke-linejoin="round"/>
<path d="M15.832 13.7656V16.2573" stroke="#4D4F52" stroke-width="1.5" stroke-miterlimit="10" stroke-linecap="round" stroke-linejoin="round"/>
<path d="M2.64062 6.20312L9.99896 10.4614L17.3073 6.2281" stroke="#4D4F52" stroke-width="1.5" stroke-linecap="round" stroke-linejoin="round"/>
<path d="M10 18.0115V10.4531" stroke="#4D4F52" stroke-width="1.5" stroke-linecap="round" stroke-linejoin="round"/>
<path d="M18.0089 7.64297V12.3597C18.0089 12.4013 18.0089 12.4346 18.0005 12.4763C17.4172 11.968 16.6672 11.668 15.8339 11.668C15.0505 11.668 14.3255 11.943 13.7505 12.4013C12.9839 13.0097 12.5005 13.9513 12.5005 15.0013C12.5005 15.6263 12.6755 16.218 12.9839 16.718C13.0589 16.8513 13.1505 16.9763 13.2505 17.093L11.7255 17.9347C10.7755 18.468 9.22552 18.468 8.27552 17.9347L3.82552 15.468C2.81718 14.9096 1.99219 13.5097 1.99219 12.3597V7.64297C1.99219 6.49297 2.81718 5.09299 3.82552 4.53465L8.27552 2.06797C9.22552 1.53464 10.7755 1.53464 11.7255 2.06797L16.1755 4.53465C17.1839 5.09299 18.0089 6.49297 18.0089 7.64297Z" stroke="#4D4F52" stroke-width="1.5" stroke-linecap="round" stroke-linejoin="round"/>
</svg>
