<svg width="20" height="20" viewBox="0 0 20 20" fill="none" xmlns="http://www.w3.org/2000/svg">
<path d="M9.16797 1.66797H7.5013C3.33464 1.66797 1.66797 3.33464 1.66797 7.5013V12.5013C1.66797 16.668 3.33464 18.3346 7.5013 18.3346H12.5013C16.668 18.3346 18.3346 16.668 18.3346 12.5013V10.8346" stroke="#4D4F52" stroke-width="1.5" stroke-linecap="round" stroke-linejoin="round"/>
<path d="M13.3675 2.51639L6.80088 9.08306C6.55088 9.33306 6.30088 9.82472 6.25088 10.1831L5.89254 12.6914C5.75921 13.5997 6.40088 14.2331 7.30921 14.1081L9.81754 13.7497C10.1675 13.6997 10.6592 13.4497 10.9175 13.1997L17.4842 6.63306C18.6175 5.49972 19.1509 4.18306 17.4842 2.51639C15.8175 0.849722 14.5009 1.38306 13.3675 2.51639Z" stroke="#4D4F52" stroke-width="1.5" stroke-miterlimit="10" stroke-linecap="round" stroke-linejoin="round"/>
<path d="M12.4258 3.45703C12.9841 5.4487 14.5424 7.00703 16.5424 7.5737" stroke="#4D4F52" stroke-width="1.5" stroke-miterlimit="10" stroke-linecap="round" stroke-linejoin="round"/>
</svg>
