<svg width="40" height="40" viewBox="0 0 40 40" fill="none" xmlns="http://www.w3.org/2000/svg">
<path d="M18.3327 33.1654V6.83203C18.3327 4.33203 17.266 3.33203 14.616 3.33203H7.88268C5.23268 3.33203 4.16602 4.33203 4.16602 6.83203V33.1654C4.16602 35.6654 5.23268 36.6654 7.88268 36.6654H14.616C17.266 36.6654 18.3327 35.6654 18.3327 33.1654Z" fill="white"/>
<path d="M35.8327 18.1654V6.83203C35.8327 4.33203 34.766 3.33203 32.116 3.33203H25.3827C22.7327 3.33203 21.666 4.33203 21.666 6.83203V18.1654C21.666 20.6654 22.7327 21.6654 25.3827 21.6654H32.116C34.766 21.6654 35.8327 20.6654 35.8327 18.1654Z" fill="white"/>
<path d="M35.8327 33.1667V28.5C35.8327 26 34.766 25 32.116 25H25.3827C22.7327 25 21.666 26 21.666 28.5V33.1667C21.666 35.6667 22.7327 36.6667 25.3827 36.6667H32.116C34.766 36.6667 35.8327 35.6667 35.8327 33.1667Z" fill="white"/>
</svg>
