<svg width="14" height="13" viewBox="0 0 14 13" fill="none" xmlns="http://www.w3.org/2000/svg">
<path d="M6.54688 0.921875C6.62205 0.692245 6.94631 0.692255 7.02148 0.921875L7.94141 3.73145C8.1768 4.45047 8.84795 4.93732 9.60449 4.9375H12.5654C12.8081 4.9375 12.9087 5.24772 12.7119 5.38965L10.3301 7.10742C9.7121 7.55304 9.45339 8.3482 9.69043 9.07227L10.6035 11.8613C10.6781 12.0909 10.4158 12.2825 10.2197 12.1416L7.80762 10.4023C7.19647 9.96177 6.37187 9.96174 5.76074 10.4023L3.34961 12.1416C3.1534 12.2831 2.89085 12.0912 2.96582 11.8613L3.87891 9.07227C4.11594 8.34822 3.85719 7.55305 3.23926 7.10742L0.856445 5.38965C0.659745 5.2477 0.760333 4.9375 1.00293 4.9375H3.96387C4.72045 4.93736 5.39155 4.4505 5.62695 3.73145L6.54688 0.921875Z" fill="white" stroke="#4D4F52" stroke-width="1.5"/>
</svg>
