<svg width="20" height="20" viewBox="0 0 20 20" fill="none" xmlns="http://www.w3.org/2000/svg">
<path d="M12.7164 18.5403H7.28307C3.19141 18.5403 1.44141 16.7903 1.44141 12.6986V12.5903C1.44141 8.89026 2.89974 7.10693 6.16641 6.7986C6.49974 6.7736 6.81641 7.0236 6.84974 7.36526C6.88307 7.70693 6.63307 8.01526 6.28307 8.0486C3.66641 8.29026 2.69141 9.5236 2.69141 12.5986V12.7069C2.69141 16.0986 3.89141 17.2986 7.28307 17.2986H12.7164C16.1081 17.2986 17.3081 16.0986 17.3081 12.7069V12.5986C17.3081 9.50693 16.3164 8.2736 13.6497 8.0486C13.3081 8.01526 13.0497 7.71526 13.0831 7.3736C13.1164 7.03193 13.4081 6.7736 13.7581 6.80693C17.0747 7.09026 18.5581 8.88193 18.5581 12.6069V12.7153C18.5581 16.7903 16.8081 18.5403 12.7164 18.5403Z" fill="white"/>
<path d="M10 13.124C9.65833 13.124 9.375 12.8406 9.375 12.499V3.01562C9.375 2.67396 9.65833 2.39062 10 2.39062C10.3417 2.39062 10.625 2.67396 10.625 3.01562V12.499C10.625 12.8406 10.3417 13.124 10 13.124Z" fill="white"/>
<path d="M12.7922 5.50052C12.6339 5.50052 12.4755 5.44219 12.3505 5.31719L10.0005 2.96719L7.65052 5.31719C7.40885 5.55885 7.00885 5.55885 6.76719 5.31719C6.52552 5.07552 6.52552 4.67552 6.76719 4.43385L9.55885 1.64219C9.80052 1.40052 10.2005 1.40052 10.4422 1.64219L13.2339 4.43385C13.4755 4.67552 13.4755 5.07552 13.2339 5.31719C13.1172 5.44219 12.9505 5.50052 12.7922 5.50052Z" fill="white"/>
</svg>
