<svg width="38" height="38" viewBox="0 0 38 38" fill="none" xmlns="http://www.w3.org/2000/svg">
<path d="M24.1608 35.2304H13.8374C6.06328 35.2304 2.73828 31.9054 2.73828 24.1312V23.9254C2.73828 16.8954 5.50911 13.5071 11.7158 12.9212C12.3491 12.8737 12.9508 13.3487 13.0141 13.9979C13.0774 14.6471 12.6024 15.2329 11.9374 15.2962C6.96578 15.7554 5.11328 18.0987 5.11328 23.9412V24.1471C5.11328 30.5912 7.39328 32.8712 13.8374 32.8712H24.1608C30.6049 32.8712 32.8849 30.5912 32.8849 24.1471V23.9412C32.8849 18.0671 31.0008 15.7237 25.9341 15.2962C25.2849 15.2329 24.7941 14.6629 24.8574 14.0137C24.9208 13.3646 25.4749 12.8737 26.1399 12.9371C32.4416 13.4754 35.2599 16.8796 35.2599 23.9571V24.1629C35.2599 31.9054 31.9349 35.2304 24.1608 35.2304Z" fill="#4D4F52"/>
<path d="M19 24.9363C18.3508 24.9363 17.8125 24.398 17.8125 23.7488V5.73047C17.8125 5.0813 18.3508 4.54297 19 4.54297C19.6492 4.54297 20.1875 5.0813 20.1875 5.73047V23.7488C20.1875 24.398 19.6492 24.9363 19 24.9363Z" fill="#4D4F52"/>
<path d="M24.3036 10.4486C24.0028 10.4486 23.7019 10.3378 23.4644 10.1003L18.9994 5.63531L14.5344 10.1003C14.0753 10.5595 13.3153 10.5595 12.8561 10.1003C12.3969 9.64115 12.3969 8.88115 12.8561 8.42198L18.1603 3.11781C18.6194 2.65865 19.3794 2.65865 19.8386 3.11781L25.1428 8.42198C25.6019 8.88115 25.6019 9.64115 25.1428 10.1003C24.9211 10.3378 24.6044 10.4486 24.3036 10.4486Z" fill="#4D4F52"/>
</svg>
