<svg width="20" height="20" viewBox="0 0 20 20" fill="none" xmlns="http://www.w3.org/2000/svg">
<path d="M4.4987 1.75H15.4987C16.4154 1.75 17.1654 2.5 17.1654 3.41667V5.25C17.1654 5.91667 16.7487 6.75 16.332 7.16667L12.7487 10.3333C12.2487 10.75 11.9154 11.5833 11.9154 12.25V15.8333C11.9154 16.3333 11.582 17 11.1654 17.25L9.9987 18C8.91536 18.6667 7.41536 17.9167 7.41536 16.5833V12.1667C7.41536 11.5833 7.08203 10.8333 6.7487 10.4167L3.58203 7.08333C3.16536 6.66667 2.83203 5.91667 2.83203 5.41667V3.5C2.83203 2.5 3.58203 1.75 4.4987 1.75Z" stroke="#050506" stroke-width="1.5" stroke-miterlimit="10" stroke-linecap="round" stroke-linejoin="round"/>
<path d="M9.10833 1.75L5 8.33333" stroke="#050506" stroke-width="1.5" stroke-miterlimit="10" stroke-linecap="round" stroke-linejoin="round"/>
</svg>
