<svg width="38" height="38" viewBox="0 0 38 38" fill="none" xmlns="http://www.w3.org/2000/svg">
<path d="M8.54948 3.32422H29.4495C31.1911 3.32422 32.6161 4.74922 32.6161 6.49089V9.97422C32.6161 11.2409 31.8245 12.8242 31.0328 13.6159L24.2245 19.6326C23.2745 20.4242 22.6411 22.0076 22.6411 23.2742V30.0826C22.6411 31.0326 22.0078 32.2992 21.2161 32.7742L18.9995 34.1992C16.9411 35.4659 14.0911 34.0409 14.0911 31.5076V23.1159C14.0911 22.0076 13.4578 20.5826 12.8245 19.7909L6.80781 13.4576C6.01615 12.6659 5.38281 11.2409 5.38281 10.2909V6.64922C5.38281 4.74922 6.80781 3.32422 8.54948 3.32422Z" stroke="#4D4F52" stroke-width="2.5" stroke-miterlimit="10" stroke-linecap="round" stroke-linejoin="round"/>
<path d="M17.3058 3.32422L9.5 15.8326" stroke="#4D4F52" stroke-width="1.5" stroke-miterlimit="10" stroke-linecap="round" stroke-linejoin="round"/>
</svg>
