<svg width="20" height="20" viewBox="0 0 20 20" fill="none" xmlns="http://www.w3.org/2000/svg">
<path d="M3.3513 4.9763C2.29297 6.3763 1.66797 8.11797 1.66797 10.0013C1.66797 14.6013 5.4013 18.3346 10.0013 18.3346C14.6013 18.3346 18.3346 14.6013 18.3346 10.0013C18.3346 5.4013 14.6013 1.66797 10.0013 1.66797" stroke="#050506" stroke-width="1.5" stroke-linecap="round" stroke-linejoin="round"/>
<path d="M4.16797 10.0013C4.16797 13.2263 6.7763 15.8346 10.0013 15.8346C13.2263 15.8346 15.8346 13.2263 15.8346 10.0013C15.8346 6.7763 13.2263 4.16797 10.0013 4.16797" stroke="#050506" stroke-width="1.5" stroke-linecap="round" stroke-linejoin="round"/>
<path d="M10 13.3346C11.8417 13.3346 13.3333 11.843 13.3333 10.0013C13.3333 8.15964 11.8417 6.66797 10 6.66797" stroke="#050506" stroke-width="1.5" stroke-linecap="round" stroke-linejoin="round"/>
</svg>
