<svg width="38" height="38" viewBox="0 0 38 38" fill="none" xmlns="http://www.w3.org/2000/svg">
<path d="M19 23.75C21.6234 23.75 23.75 21.6234 23.75 19C23.75 16.3766 21.6234 14.25 19 14.25C16.3766 14.25 14.25 16.3766 14.25 19C14.25 21.6234 16.3766 23.75 19 23.75Z" stroke="#4D4F52" stroke-width="3" stroke-miterlimit="10" stroke-linecap="round" stroke-linejoin="round"/>
<path d="M3.16797 20.3929V17.6063C3.16797 15.9596 4.5138 14.5979 6.1763 14.5979C9.04214 14.5979 10.2138 12.5713 8.77297 10.0854C7.94964 8.66045 8.44047 6.80795 9.8813 5.98461L12.6205 4.41711C13.8713 3.67295 15.4863 4.11628 16.2305 5.36711L16.4046 5.66795C17.8296 8.15378 20.173 8.15378 21.6138 5.66795L21.788 5.36711C22.5321 4.11628 24.1471 3.67295 25.398 4.41711L28.1371 5.98461C29.578 6.80795 30.0688 8.66045 29.2455 10.0854C27.8046 12.5713 28.9763 14.5979 31.8421 14.5979C33.4888 14.5979 34.8505 15.9438 34.8505 17.6063V20.3929C34.8505 22.0396 33.5046 23.4013 31.8421 23.4013C28.9763 23.4013 27.8046 25.4279 29.2455 27.9138C30.0688 29.3546 29.578 31.1913 28.1371 32.0146L25.398 33.5821C24.1471 34.3263 22.5321 33.8829 21.788 32.6321L21.6138 32.3313C20.1888 29.8454 17.8455 29.8454 16.4046 32.3313L16.2305 32.6321C15.4863 33.8829 13.8713 34.3263 12.6205 33.5821L9.8813 32.0146C8.44047 31.1913 7.94964 29.3388 8.77297 27.9138C10.2138 25.4279 9.04214 23.4013 6.1763 23.4013C4.5138 23.4013 3.16797 22.0396 3.16797 20.3929Z" stroke="#4D4F52" stroke-width="3" stroke-miterlimit="10" stroke-linecap="round" stroke-linejoin="round"/>
</svg>
