<svg width="20" height="20" viewBox="0 0 20 20" fill="none" xmlns="http://www.w3.org/2000/svg">
<path d="M9.9987 15.4154C12.9902 15.4154 15.4154 12.9902 15.4154 9.9987C15.4154 7.00716 12.9902 4.58203 9.9987 4.58203C7.00716 4.58203 4.58203 7.00716 4.58203 9.9987C4.58203 12.9902 7.00716 15.4154 9.9987 15.4154Z" stroke="#050506" stroke-width="1.5" stroke-linecap="round" stroke-linejoin="round"/>
<path d="M15.9513 15.9513L15.843 15.843M15.843 4.15964L15.9513 4.0513L15.843 4.15964ZM4.0513 15.9513L4.15964 15.843L4.0513 15.9513ZM10.0013 1.73464V1.66797V1.73464ZM10.0013 18.3346V18.268V18.3346ZM1.73464 10.0013H1.66797H1.73464ZM18.3346 10.0013H18.268H18.3346ZM4.15964 4.15964L4.0513 4.0513L4.15964 4.15964Z" stroke="#050506" stroke-width="2" stroke-linecap="round" stroke-linejoin="round"/>
</svg>
