<svg width="20" height="20" viewBox="0 0 20 20" fill="none" xmlns="http://www.w3.org/2000/svg">
<path d="M3.47532 12.7511L7.25032 16.5261C8.80032 18.0761 11.317 18.0761 12.8753 16.5261L16.5337 12.8678C18.0837 11.3178 18.0837 8.80114 16.5337 7.24281L12.7503 3.47614C11.9587 2.68447 10.867 2.25947 9.75032 2.31781L5.58365 2.51781C3.91698 2.59281 2.59198 3.91781 2.50865 5.57614L2.30865 9.74281C2.25865 10.8678 2.68365 11.9595 3.47532 12.7511Z" stroke="#4D4F52" stroke-width="1.5" stroke-linecap="round" stroke-linejoin="round"/>
<path d="M7.91536 9.9987C9.06596 9.9987 9.9987 9.06596 9.9987 7.91536C9.9987 6.76477 9.06596 5.83203 7.91536 5.83203C6.76477 5.83203 5.83203 6.76477 5.83203 7.91536C5.83203 9.06596 6.76477 9.9987 7.91536 9.9987Z" stroke="#4D4F52" stroke-width="1.5" stroke-linecap="round"/>
</svg>
