<svg width="18" height="18" viewBox="0 0 18 18" fill="none" xmlns="http://www.w3.org/2000/svg">
<path d="M3.95976 14C3.44332 14 3.00562 13.8378 2.64666 13.5135C2.28723 13.1892 2.10752 12.7954 2.10752 12.3321H1.125V6.03032C1.125 5.73661 1.23448 5.49157 1.45345 5.2952C1.67242 5.09882 1.94507 5.00043 2.27139 5H11.6568V7.30547H13.2941L15.75 10.2721V12.3321H14.6036C14.6036 12.7954 14.4229 13.1892 14.0616 13.5135C13.7003 13.8378 13.2614 13.9998 12.745 13.9994C12.2285 13.9989 11.7911 13.837 11.4326 13.5135C11.0741 13.1901 10.8944 12.7963 10.8934 12.3321H5.81768C5.81768 12.798 5.63702 13.1924 5.2757 13.5154C4.91438 13.8385 4.4755 14 3.95905 14M3.96189 13.3624C4.28112 13.3624 4.55188 13.2625 4.77416 13.0628C4.99643 12.863 5.10757 12.6194 5.10757 12.3321C5.10757 12.0448 4.99643 11.8014 4.77416 11.6021C4.55188 11.4027 4.28112 11.3028 3.96189 11.3024C3.64266 11.302 3.37191 11.4019 3.14963 11.6021C2.92735 11.8023 2.81621 12.0456 2.81621 12.3321C2.81621 12.6186 2.92735 12.8619 3.14963 13.0621C3.37191 13.2623 3.64266 13.3629 3.96189 13.3624ZM1.83369 11.6945H2.29267C2.39341 11.4131 2.5989 11.1713 2.90914 10.969C3.21939 10.7666 3.5703 10.6651 3.96189 10.6642C4.33551 10.6642 4.68217 10.7637 5.00187 10.9626C5.3211 11.1611 5.53109 11.4051 5.63182 11.6945H10.9474V5.63757H2.27068C2.16143 5.63757 2.06141 5.67838 1.97061 5.75999C1.87933 5.8416 1.83369 5.9315 1.83369 6.02968V11.6945ZM12.7478 13.3624C13.067 13.3624 13.3378 13.2625 13.5601 13.0628C13.7824 12.8626 13.8935 12.619 13.8935 12.3321C13.8935 12.0452 13.7824 11.8019 13.5601 11.6021C13.3378 11.4023 13.067 11.3024 12.7478 11.3024C12.4286 11.3024 12.1578 11.4023 11.9356 11.6021C11.7133 11.8019 11.6021 12.0452 11.6021 12.3321C11.6021 12.619 11.7133 12.8624 11.9356 13.0621C12.1578 13.2619 12.4286 13.3624 12.7478 13.3624ZM11.6568 10.4194H14.9995L12.9124 7.94304H11.6568V10.4194Z" fill="#4D4F52"/>
</svg>
